<svg width="26" height="25" viewBox="0 0 26 25" fill="none" xmlns="http://www.w3.org/2000/svg">
<path d="M0.839844 12.48C0.839844 5.58749 6.42733 0 13.3198 0C20.2124 0 25.7998 5.58749 25.7998 12.48C25.7998 19.3725 20.2124 24.96 13.3198 24.96C6.42733 24.96 0.839844 19.3725 0.839844 12.48Z" fill="white"/>
<path d="M13.3199 9.16312C14.3354 9.16312 15.0204 9.60176 15.411 9.96831L16.9373 8.4781C15.9999 7.60681 14.7801 7.07202 13.3199 7.07202C11.2048 7.07202 9.37809 8.28582 8.48877 10.0524L10.2374 11.4104C10.676 10.1065 11.8898 9.16312 13.3199 9.16312Z" fill="#EA4335"/>
<path d="M18.5115 12.6001C18.5115 12.1555 18.4755 11.831 18.3973 11.4945H13.3198V13.5015H16.3002C16.2401 14.0002 15.9157 14.7513 15.1946 15.2561L16.9011 16.578C17.9226 15.6346 18.5115 14.2466 18.5115 12.6001Z" fill="#4285F4"/>
<path d="M10.2433 13.5497C10.1291 13.2132 10.063 12.8526 10.063 12.4801C10.063 12.1075 10.1291 11.747 10.2373 11.4105L8.48872 10.0525C8.12218 10.7856 7.91187 11.6088 7.91187 12.4801C7.91187 13.3514 8.12218 14.1746 8.48872 14.9077L10.2433 13.5497Z" fill="#FBBC05"/>
<path d="M13.3199 17.888C14.78 17.888 16.0059 17.4073 16.9012 16.578L15.1947 15.2561C14.738 15.5746 14.1251 15.7969 13.3199 15.7969C11.8898 15.7969 10.676 14.8535 10.2433 13.5496L8.49475 14.9076C9.38407 16.6742 11.2048 17.888 13.3199 17.888Z" fill="#34A853"/>
</svg>
